# xmcd
#
# Track frame offsets: 
#        150
#        33303
#        56495
#        84705
#        123296
#        157819
#        197674
#        226558
#        259428
#        313378
#
# Disc length: 4683 seconds
#
# Revision: 0
# Processed by: cddbd v1.5.2PL0 Copyright (c) Steve Scherf et al.
# Submitted via: ExactAudioCopy v0.95b3
#
DISCID=7d12490a
DTITLE=Rick Baskin - Baskin in the Blues
DYEAR=2008
DGENRE=Blues
TTITLE0=Blues With A Feeling
TTITLE1=Born In Chicago
TTITLE2=Crossroads
TTITLE3=Hoochie Coochie Man
TTITLE4=Cleo's Back
TTITLE5=Little Red Rooster
TTITLE6=Try Me Baby
TTITLE7=Nadine
TTITLE8=Lord Have Mercy
TTITLE9=So Long Baby
EXTD=
EXTT0=
EXTT1=
EXTT2=
EXTT3=
EXTT4=
EXTT5=
EXTT6=
EXTT7=
EXTT8=
EXTT9=
PLAYORDER=
